<svg width="72" height="72" viewBox="0 0 72 72" fill="none" xmlns="http://www.w3.org/2000/svg">
<g clip-path="url(#clip0_3633_2879)">
<mask id="mask0_3633_2879" style="mask-type:luminance" maskUnits="userSpaceOnUse" x="0" y="0" width="72" height="72">
<path d="M72 0H0V72H72V0Z" fill="white"/>
</mask>
<g mask="url(#mask0_3633_2879)">
<mask id="mask1_3633_2879" style="mask-type:luminance" maskUnits="userSpaceOnUse" x="-1" y="-1" width="74" height="74">
<path d="M-0.25 -0.25H72.25V72.25H-0.25V-0.25Z" fill="white"/>
</mask>
<g mask="url(#mask1_3633_2879)">
<path d="M39.3278 25.9914L13.8741 26.2644C13.0465 26.2732 12.3348 26.7548 11.9926 27.4499L11.794 28.1045C11.7809 28.2039 11.7746 28.3053 11.7757 28.4083L12.0484 53.8622C12.0568 54.6398 12.4827 55.3153 13.1107 55.6779L14.0278 55.956C14.0822 55.9596 14.137 55.9612 14.1924 55.9605L39.6463 55.6877C40.8179 55.6751 41.7573 54.7153 41.7447 53.5437L41.4718 28.0899C41.4616 27.1407 40.8297 26.344 39.9672 26.0823C39.7651 26.021 39.5502 25.989 39.3278 25.9914Z" fill="url(#paint0_linear_3633_2879)"/>
<path d="M18.4807 26.2149L13.8739 26.2643C13.6166 26.267 13.3704 26.3156 13.1431 26.402C12.5664 26.8323 12.0947 27.4121 11.7936 28.106C11.7806 28.2046 11.7744 28.3056 11.7755 28.4082L12.0484 53.8621C12.0559 54.5673 12.4068 55.1885 12.9405 55.5685L14.2314 55.9601L39.6462 55.6876C40.8178 55.6751 41.7573 54.7152 41.7447 53.5436L41.5267 33.2055L18.4807 26.2149Z" fill="url(#paint1_linear_3633_2879)"/>
<path d="M18.4808 26.215L13.8739 26.2643C13.6166 26.267 13.3704 26.3156 13.1431 26.402C12.5664 26.8323 12.0947 27.4121 11.7936 28.106C11.7806 28.2046 11.7744 28.3056 11.7755 28.4082L11.9517 43.8474L41.0405 49.2851L41.5267 33.2055L18.4808 26.215Z" fill="url(#paint2_linear_3633_2879)"/>
<path d="M28.3124 19.3293L28.2565 48.1768C28.254 49.5045 29.3283 50.5828 30.656 50.5855L59.5032 50.6412C60.8308 50.6438 61.9092 49.5696 61.9118 48.2419L61.9678 19.3946C61.9703 18.0669 60.896 16.9885 59.5683 16.9859L30.721 16.93C30.5053 16.9296 30.2962 16.9576 30.0972 17.0105C29.0715 17.2833 28.3146 18.2175 28.3124 19.3293Z" fill="url(#paint3_linear_3633_2879)"/>
<path d="M7.47427 15.0884C3.82023 15.4057 1.11515 18.6253 1.43246 22.2793L4.30528 55.3618C4.6226 59.0159 7.84215 61.7209 11.4962 61.4036L64.428 56.8071C68.082 56.4898 70.7871 53.2703 70.4698 49.6162L67.597 16.5337C67.2797 12.8797 64.0601 10.1746 60.4061 10.4919L7.47427 15.0884Z" fill="url(#paint4_linear_3633_2879)"/>
<path d="M7.47427 15.0884C3.82023 15.4057 1.11515 18.6253 1.43246 22.2793L4.30528 55.3618C4.6226 59.0159 7.84215 61.7209 11.4962 61.4036L64.428 56.8071C68.082 56.4898 70.7871 53.2703 70.4698 49.6162L67.597 16.5337C67.2797 12.8797 64.0601 10.1746 60.4061 10.4919L7.47427 15.0884Z" fill="url(#paint5_linear_3633_2879)"/>
<path d="M7.47427 15.0884C3.82023 15.4057 1.11515 18.6253 1.43246 22.2793L4.30528 55.3618C4.6226 59.0159 7.84215 61.7209 11.4962 61.4036L64.428 56.8071C68.082 56.4898 70.7871 53.2703 70.4698 49.6162L67.597 16.5337C67.2797 12.8797 64.0601 10.1746 60.4061 10.4919L7.47427 15.0884Z" fill="url(#paint6_radial_3633_2879)"/>
<path d="M30.0616 35.5481C28.9966 38.247 21.4632 37.5754 13.2355 34.048C5.00779 30.5206 -0.798705 25.4731 0.2664 22.7741C1.33151 20.0751 8.86474 20.7466 17.0925 24.2743C25.3201 27.8016 31.1267 32.8491 30.0616 35.5481Z" fill="#FFA0BA"/>
<path d="M0.163765 23.7896L2.06034 51.4547C2.32888 55.0926 6.78104 57.0015 9.42756 54.6131L9.83259 54.2478C13.1269 51.2751 17.7516 50.1278 22.1248 51.1985C23.0476 51.3416 23.8715 50.7262 23.9651 49.8238C24.0587 48.9216 23.3866 48.0745 22.4639 47.9312C20.5585 47.4224 19.9517 45.087 21.383 43.7724L29.6274 36.2009L29.6184 36.1971C27.6297 38.1026 20.7197 37.2571 13.2348 34.048C5.95093 30.9253 0.564564 26.611 0.163765 23.7896Z" fill="white"/>
<path d="M53.6558 46.211C53.6558 45.2578 54.4285 44.485 55.3817 44.4848L55.3247 44.472C56.2781 44.4719 57.0511 45.2446 57.0511 46.198C57.0511 47.1514 56.2782 47.9242 55.3249 47.9242L55.3821 47.9373C54.4288 47.9373 53.6558 47.1644 53.6558 46.211Z" fill="white"/>
</g>
</g>
</g>
<defs>
<linearGradient id="paint0_linear_3633_2879" x1="25.1146" y1="57.3395" x2="28.7285" y2="22.1765" gradientUnits="userSpaceOnUse">
<stop stop-color="#8C48FF"/>
<stop offset="0.5" stop-color="#4E6FEE"/>
<stop offset="1" stop-color="#1097DD"/>
</linearGradient>
<linearGradient id="paint1_linear_3633_2879" x1="24.2984" y1="41.8034" x2="20.0133" y2="59.6601" gradientUnits="userSpaceOnUse">
<stop stop-color="#47229F" stop-opacity="0"/>
<stop offset="0.25" stop-color="#28125D" stop-opacity="0.4"/>
<stop offset="0.5" stop-color="#09011B" stop-opacity="0.8"/>
<stop offset="0.75" stop-color="#28125D" stop-opacity="0.4"/>
<stop offset="1" stop-color="#47229F" stop-opacity="0"/>
</linearGradient>
<linearGradient id="paint2_linear_3633_2879" x1="12.6845" y1="29.4528" x2="20.3468" y2="31.4216" gradientUnits="userSpaceOnUse">
<stop stop-color="#47229F" stop-opacity="0"/>
<stop offset="0.25" stop-color="#28125D" stop-opacity="0.405"/>
<stop offset="0.5" stop-color="#09011B" stop-opacity="0.81"/>
<stop offset="0.75" stop-color="#28125D" stop-opacity="0.405"/>
<stop offset="1" stop-color="#47229F" stop-opacity="0"/>
</linearGradient>
<linearGradient id="paint3_linear_3633_2879" x1="48.4379" y1="40.5975" x2="33.4349" y2="9.74473" gradientUnits="userSpaceOnUse">
<stop stop-color="#00AEFF"/>
<stop offset="0.5" stop-color="#1181E7"/>
<stop offset="1" stop-color="#2253CE"/>
</linearGradient>
<linearGradient id="paint4_linear_3633_2879" x1="41.8013" y1="39.349" x2="69.6394" y2="56.8375" gradientUnits="userSpaceOnUse">
<stop stop-color="#F2598A"/>
<stop offset="0.5" stop-color="#F95C63"/>
<stop offset="1" stop-color="#FF5F3D"/>
</linearGradient>
<linearGradient id="paint5_linear_3633_2879" x1="77.9054" y1="64.4049" x2="47.8034" y2="43.7968" gradientUnits="userSpaceOnUse">
<stop stop-color="#FFB152"/>
<stop offset="0.5" stop-color="#FFB152" stop-opacity="0.5"/>
<stop offset="1" stop-color="#FFB152" stop-opacity="0"/>
</linearGradient>
<radialGradient id="paint6_radial_3633_2879" cx="0" cy="0" r="1" gradientUnits="userSpaceOnUse" gradientTransform="translate(-4.48384 12.7953) rotate(-4.963) scale(30.8114)">
<stop stop-color="#A44CE3"/>
<stop offset="0.5" stop-color="#A44CE3" stop-opacity="0.5"/>
<stop offset="1" stop-color="#A44CE3" stop-opacity="0"/>
</radialGradient>
<clipPath id="clip0_3633_2879">
<rect width="72" height="72" fill="white"/>
</clipPath>
</defs>
</svg>
