<svg width="72" height="72" viewBox="0 0 72 72" fill="none" xmlns="http://www.w3.org/2000/svg">
<g clip-path="url(#clip0_3633_4441)">
<mask id="mask0_3633_4441" style="mask-type:luminance" maskUnits="userSpaceOnUse" x="0" y="0" width="72" height="72">
<path d="M72 0H0V72H72V0Z" fill="white"/>
</mask>
<g mask="url(#mask0_3633_4441)">
<mask id="mask1_3633_4441" style="mask-type:luminance" maskUnits="userSpaceOnUse" x="-1" y="-1" width="74" height="74">
<path d="M-0.25 -0.25H72.25V72.25H-0.25V-0.25Z" fill="white"/>
</mask>
<g mask="url(#mask1_3633_4441)">
<path d="M36.3982 20.9851L1.82408 31.8788C0.699894 32.2329 -0.0709249 33.1834 -0.25 34.272V35.2463C-0.226802 35.3871 -0.19345 35.5279 -0.14937 35.6678L10.744 70.2422C11.077 71.2985 11.9365 72.0429 12.9422 72.2774H14.307C14.3825 72.2598 14.4579 72.2393 14.5332 72.2155L49.1076 61.3219C50.6989 60.8205 51.5823 59.1241 51.0809 57.5328L40.1873 22.9585C39.781 21.6693 38.5906 20.8447 37.307 20.8447C37.0063 20.8447 36.7002 20.89 36.3982 20.9851Z" fill="url(#paint0_linear_3633_4441)"/>
<path d="M8.08112 29.9072L1.82364 31.8788C1.47405 31.9888 1.15867 32.1568 0.884625 32.3685C0.276638 33.1932 -0.126461 34.1783 -0.25 35.2484C-0.226945 35.3882 -0.193596 35.5284 -0.149806 35.6678L10.7439 70.2422C11.0456 71.2 11.7806 71.9015 12.665 72.1988H14.586L49.1073 61.3219C50.6986 60.8205 51.5821 59.1241 51.0807 57.5328L42.3767 29.9072H8.08112Z" fill="url(#paint1_linear_3633_4441)"/>
<path d="M8.08126 29.9072L1.82364 31.8788C1.47405 31.9888 1.15867 32.1568 0.884625 32.3685C0.276638 33.1932 -0.126461 34.1783 -0.25 35.2484C-0.226945 35.3882 -0.193596 35.5284 -0.149806 35.6678L6.47234 56.6346L48.3608 52.0206L42.3767 29.9072H8.08126Z" fill="url(#paint2_linear_3633_4441)"/>
<path d="M30.5138 1.97906L20.9615 37.6285C20.522 39.2693 21.4958 40.9556 23.1365 41.3954L58.7856 50.9474C60.4262 51.3871 62.1127 50.4134 62.5524 48.7726L72.1047 13.1235C72.5443 11.4826 71.5705 9.79616 69.9297 9.35652L34.2806 -0.195649C34.0139 -0.267136 33.7462 -0.301208 33.4828 -0.301208C32.1249 -0.301065 30.8819 0.605185 30.5138 1.97906Z" fill="url(#paint3_linear_3633_4441)"/>
<path d="M11.7935 14.803C8.45693 14.803 5.75195 17.508 5.75195 20.8445V51.053C5.75195 54.3897 8.45693 57.0945 11.7935 57.0945H60.127C63.4635 57.0945 66.1685 54.3897 66.1685 51.053V20.8445C66.1685 17.508 63.4635 14.803 60.127 14.803H11.7935Z" fill="url(#paint4_linear_3633_4441)"/>
<path d="M11.7935 14.803C8.45693 14.803 5.75195 17.508 5.75195 20.8445V51.053C5.75195 54.3897 8.45693 57.0945 11.7935 57.0945H60.127C63.4635 57.0945 66.1685 54.3897 66.1685 51.053V20.8445C66.1685 17.508 63.4635 14.803 60.127 14.803H11.7935Z" fill="url(#paint5_linear_3633_4441)"/>
<path d="M11.7935 14.803C8.45693 14.803 5.75195 17.508 5.75195 20.8445V51.053C5.75195 54.3897 8.45693 57.0945 11.7935 57.0945H60.127C63.4635 57.0945 66.1685 54.3897 66.1685 51.053V20.8445C66.1685 17.508 63.4635 14.803 60.127 14.803H11.7935Z" fill="url(#paint6_radial_3633_4441)"/>
<path d="M34.176 47.9505C32.0417 48.5567 28.9515 43.6679 27.2738 37.0311C25.5962 30.3943 25.9664 24.5227 28.1008 23.9164C30.2352 23.3102 33.3254 28.1988 35.0029 34.8358C36.6805 41.4724 36.3104 47.3442 34.176 47.9505Z" fill="#FFA0BA"/>
<path d="M27.4364 24.3257L11.5092 38.3249C9.42368 40.1774 10.3314 43.7688 13.0114 44.2676L13.4215 44.344C16.7573 44.965 19.602 47.242 20.9822 50.3962C21.3238 51.0233 22.0803 51.238 22.672 50.8758C23.2636 50.5138 23.4662 49.7121 23.1247 49.0849C22.5491 47.691 23.6862 46.2379 25.1495 46.497L33.5781 47.9899L33.5762 47.9826C31.495 47.6593 28.7999 43.0684 27.2738 37.0308C25.7885 31.1554 25.9084 25.8794 27.4364 24.3257Z" fill="white"/>
<path d="M41.9473 46.1989C41.9473 45.2456 42.72 44.4728 43.6732 44.4726L55.325 44.472C56.2783 44.4719 57.0513 45.2446 57.0513 46.198C57.0513 47.1514 56.2785 47.9242 55.3251 47.9242L43.6736 47.9251C42.7203 47.9251 41.9473 47.1522 41.9473 46.1989Z" fill="white"/>
<path d="M41.9473 35.9855C41.9473 35.0321 42.7201 34.2593 43.6735 34.2593H58.346C59.2994 34.2593 60.0723 35.0321 60.0723 35.9855C60.0723 36.9389 59.2994 37.7117 58.346 37.7117H43.6735C42.7201 37.7117 41.9473 36.9389 41.9473 35.9855Z" fill="white"/>
<path d="M41.9473 25.483C41.9473 24.5296 42.7201 23.7568 43.6735 23.7568H58.346C59.2994 23.7568 60.0723 24.5296 60.0723 25.483C60.0723 26.4364 59.2994 27.2092 58.346 27.2092H43.6735C42.7201 27.2092 41.9473 26.4364 41.9473 25.483Z" fill="white"/>
</g>
</g>
</g>
<defs>
<linearGradient id="paint0_linear_3633_4441" x1="29.9873" y1="69.5798" x2="20.377" y2="20.1677" gradientUnits="userSpaceOnUse">
<stop stop-color="#8C48FF"/>
<stop offset="0.5" stop-color="#4E6FEE"/>
<stop offset="1" stop-color="#1097DD"/>
</linearGradient>
<linearGradient id="paint1_linear_3633_4441" x1="22.4529" y1="48.7455" x2="22.9032" y2="63.3203" gradientUnits="userSpaceOnUse">
<stop stop-color="#47229F" stop-opacity="0"/>
<stop offset="0.25" stop-color="#28125D" stop-opacity="0.4"/>
<stop offset="0.5" stop-color="#09011B" stop-opacity="0.8"/>
<stop offset="0.75" stop-color="#28125D" stop-opacity="0.4"/>
<stop offset="1" stop-color="#47229F" stop-opacity="0"/>
</linearGradient>
<linearGradient id="paint2_linear_3633_4441" x1="1.52074" y1="36.7156" x2="12.7764" y2="36.2313" gradientUnits="userSpaceOnUse">
<stop stop-color="#47229F" stop-opacity="0"/>
<stop offset="0.25" stop-color="#28125D" stop-opacity="0.405"/>
<stop offset="0.5" stop-color="#09011B" stop-opacity="0.81"/>
<stop offset="0.75" stop-color="#28125D" stop-opacity="0.405"/>
<stop offset="1" stop-color="#47229F" stop-opacity="0"/>
</linearGradient>
<linearGradient id="paint3_linear_3633_4441" x1="48.4059" y1="34.8916" x2="39.9981" y2="-8.18761" gradientUnits="userSpaceOnUse">
<stop stop-color="#00AEFF"/>
<stop offset="0.5" stop-color="#1181E7"/>
<stop offset="1" stop-color="#2253CE"/>
</linearGradient>
<linearGradient id="paint4_linear_3633_4441" x1="40.9945" y1="39.4917" x2="64.8476" y2="57.5323" gradientUnits="userSpaceOnUse">
<stop stop-color="#F2598A"/>
<stop offset="0.5" stop-color="#F95C63"/>
<stop offset="1" stop-color="#FF5F3D"/>
</linearGradient>
<linearGradient id="paint5_linear_3633_4441" x1="71.7435" y1="65.0411" x2="46.0841" y2="43.9951" gradientUnits="userSpaceOnUse">
<stop stop-color="#FFB152"/>
<stop offset="0.5" stop-color="#FFB152" stop-opacity="0.5"/>
<stop offset="1" stop-color="#FFB152" stop-opacity="0"/>
</linearGradient>
<radialGradient id="paint6_radial_3633_4441" cx="0" cy="0" r="1" gradientUnits="userSpaceOnUse" gradientTransform="translate(1.13646 11.7836) scale(28.0292 28.0292)">
<stop stop-color="#A44CE3"/>
<stop offset="0.5" stop-color="#A44CE3" stop-opacity="0.5"/>
<stop offset="1" stop-color="#A44CE3" stop-opacity="0"/>
</radialGradient>
<clipPath id="clip0_3633_4441">
<rect width="72" height="72" fill="white"/>
</clipPath>
</defs>
</svg>
