<svg width="72" height="72" viewBox="0 0 72 72" fill="none" xmlns="http://www.w3.org/2000/svg">
<g clip-path="url(#clip0_3633_2518)">
<mask id="mask0_3633_2518" style="mask-type:luminance" maskUnits="userSpaceOnUse" x="0" y="0" width="72" height="72">
<path d="M72 0H0V72H72V0Z" fill="white"/>
</mask>
<g mask="url(#mask0_3633_2518)">
<mask id="mask1_3633_2518" style="mask-type:luminance" maskUnits="userSpaceOnUse" x="-1" y="-1" width="74" height="74">
<path d="M-0.25 -0.25H72.25V72.25H-0.25V-0.25Z" fill="white"/>
</mask>
<g mask="url(#mask1_3633_2518)">
<path d="M39.1318 25.3921L12.4651 26.5844C11.598 26.6231 10.8693 27.1531 10.5353 27.8937L10.3505 28.5869C10.3403 28.6915 10.3373 28.798 10.3421 28.9059L11.5341 55.5728C11.5706 56.3875 12.041 57.0803 12.7121 57.4379L13.6831 57.6968C13.7402 57.6986 13.7978 57.6983 13.8558 57.6956L40.5227 56.5036C41.7501 56.4487 42.7004 55.4093 42.6455 54.1819L41.4534 27.5151C41.4089 26.5207 40.7183 25.7082 39.805 25.4647C39.5911 25.4076 39.3647 25.3817 39.1318 25.3921Z" fill="url(#paint0_linear_3633_2518)"/>
<path d="M17.291 26.3685L12.4647 26.5843C12.1951 26.5963 11.9388 26.6559 11.7037 26.7545C11.1146 27.226 10.6409 27.8505 10.35 28.5885C10.3399 28.6923 10.337 28.7984 10.3418 28.9058L11.534 55.5727C11.5669 56.3115 11.9568 56.9501 12.5297 57.3294L13.8965 57.6938L40.5224 56.5035C41.7498 56.4486 42.7003 55.4092 42.6454 54.1818L41.693 32.8745L17.291 26.3685Z" fill="url(#paint1_linear_3633_2518)"/>
<path d="M17.2911 26.3686L12.4647 26.5843C12.1951 26.5963 11.9388 26.6559 11.7037 26.7545C11.1146 27.226 10.6409 27.8505 10.35 28.5885C10.3399 28.6923 10.337 28.7984 10.3418 28.9058L11.0761 45.0804L41.7558 49.7438L41.693 32.8745L17.2911 26.3686Z" fill="url(#paint2_linear_3633_2518)"/>
<path d="M28.2205 17.4147L27.2688 47.1769C27.2251 48.5467 28.3001 49.6925 29.6699 49.7364L59.4318 50.6879C60.8015 50.7318 61.9475 49.6568 61.9913 48.287L62.943 18.525C62.9868 17.1552 61.9117 16.0093 60.5419 15.9655L30.78 15.0139C30.5573 15.0067 30.3408 15.0291 30.1338 15.0776C29.0671 15.3273 28.2572 16.2677 28.2205 17.4147Z" fill="url(#paint3_linear_3633_2518)"/>
<path d="M7.97925 15.0245C4.36022 15.3024 1.65153 18.4616 1.92939 22.0806L4.44504 54.8462C4.72291 58.4654 7.88211 61.1739 11.5011 60.8961L63.926 56.871C67.545 56.5932 70.2537 53.4341 69.9759 49.8149L67.4602 17.0494C67.1823 13.4303 64.0231 10.7216 60.4041 10.9995L7.97925 15.0245Z" fill="url(#paint4_linear_3633_2518)"/>
<path d="M7.97925 15.0245C4.36022 15.3024 1.65153 18.4616 1.92939 22.0806L4.44504 54.8462C4.72291 58.4654 7.88211 61.1739 11.5011 60.8961L63.926 56.871C67.545 56.5932 70.2537 53.4341 69.9759 49.8149L67.4602 17.0494C67.1823 13.4303 64.0231 10.7216 60.4041 10.9995L7.97925 15.0245Z" fill="url(#paint5_linear_3633_2518)"/>
<path d="M7.97925 15.0245C4.36022 15.3024 1.65153 18.4616 1.92939 22.0806L4.44504 54.8462C4.72291 58.4654 7.88211 61.1739 11.5011 60.8961L63.926 56.871C67.545 56.5932 70.2537 53.4341 69.9759 49.8149L67.4602 17.0494C67.1823 13.4303 64.0231 10.7216 60.4041 10.9995L7.97925 15.0245Z" fill="url(#paint6_radial_3633_2518)"/>
<path d="M31.2267 36.8333C29.9197 39.3354 22.6995 37.9134 15.1003 33.657C7.50111 29.4007 2.40038 23.9219 3.70759 21.4196C5.0148 18.9173 12.2348 20.3392 19.834 24.5958C27.4331 28.852 32.534 34.331 31.2267 36.8333Z" fill="#FFA0BA"/>
<path d="M3.50424 22.3916L2.5035 49.3536C2.39043 52.901 6.50247 55.2043 9.30794 53.1647L9.73728 52.8527C13.2295 50.3142 17.8217 49.6781 21.9432 51.1624C22.8215 51.3955 23.6817 50.8845 23.8647 50.0209C24.0478 49.1576 23.4844 48.2691 22.6062 48.0359C20.8149 47.3483 20.4671 45.0264 21.9867 43.9012L30.7398 37.4204L30.7314 37.4158C28.6119 39.0557 22.0128 37.5292 15.0997 33.6571C8.3722 29.8891 3.60283 25.1626 3.50424 22.3916Z" fill="white"/>
<path d="M50.7808 46.208C50.7808 45.2548 51.5535 44.482 52.5067 44.4818L55.3253 44.472C56.2787 44.4719 57.0517 45.2446 57.0517 46.198C57.0517 47.1514 56.2788 47.9242 55.3255 47.9242L52.5071 47.9343C51.5538 47.9343 50.7808 47.1614 50.7808 46.208Z" fill="white"/>
<path d="M56.5142 35.9782C56.5142 35.0249 57.287 34.252 58.2404 34.252L58.3464 34.2592C59.2998 34.2592 60.0726 35.0321 60.0726 35.9855C60.0726 36.9388 59.2998 37.7117 58.3464 37.7117L58.2404 37.7045C57.287 37.7045 56.5142 36.9316 56.5142 35.9782Z" fill="white"/>
</g>
</g>
</g>
<defs>
<linearGradient id="paint0_linear_3633_2518" x1="25.3517" y1="58.752" x2="27.8874" y2="21.7713" gradientUnits="userSpaceOnUse">
<stop stop-color="#8C48FF"/>
<stop offset="0.5" stop-color="#4E6FEE"/>
<stop offset="1" stop-color="#1097DD"/>
</linearGradient>
<linearGradient id="paint1_linear_3633_2518" x1="23.9432" y1="42.4987" x2="20.0879" y2="61.3657" gradientUnits="userSpaceOnUse">
<stop stop-color="#47229F" stop-opacity="0"/>
<stop offset="0.25" stop-color="#28125D" stop-opacity="0.4"/>
<stop offset="0.5" stop-color="#09011B" stop-opacity="0.8"/>
<stop offset="0.75" stop-color="#28125D" stop-opacity="0.4"/>
<stop offset="1" stop-color="#47229F" stop-opacity="0"/>
</linearGradient>
<linearGradient id="paint2_linear_3633_2518" x1="11.3316" y1="29.9683" x2="19.4321" y2="31.7589" gradientUnits="userSpaceOnUse">
<stop stop-color="#47229F" stop-opacity="0"/>
<stop offset="0.25" stop-color="#28125D" stop-opacity="0.405"/>
<stop offset="0.5" stop-color="#09011B" stop-opacity="0.81"/>
<stop offset="0.75" stop-color="#28125D" stop-opacity="0.405"/>
<stop offset="1" stop-color="#47229F" stop-opacity="0"/>
</linearGradient>
<linearGradient id="paint3_linear_3633_2518" x1="48.3262" y1="39.9822" x2="33.8027" y2="7.6844" gradientUnits="userSpaceOnUse">
<stop stop-color="#00AEFF"/>
<stop offset="0.5" stop-color="#1181E7"/>
<stop offset="1" stop-color="#2253CE"/>
</linearGradient>
<linearGradient id="paint4_linear_3633_2518" x1="41.7081" y1="39.3714" x2="69.0827" y2="56.9527" gradientUnits="userSpaceOnUse">
<stop stop-color="#F2598A"/>
<stop offset="0.5" stop-color="#F95C63"/>
<stop offset="1" stop-color="#FF5F3D"/>
</linearGradient>
<linearGradient id="paint5_linear_3633_2518" x1="77.1876" y1="64.5229" x2="47.6036" y2="43.8322" gradientUnits="userSpaceOnUse">
<stop stop-color="#FFB152"/>
<stop offset="0.5" stop-color="#FFB152" stop-opacity="0.5"/>
<stop offset="1" stop-color="#FFB152" stop-opacity="0"/>
</linearGradient>
<radialGradient id="paint6_radial_3633_2518" cx="0" cy="0" r="1" gradientUnits="userSpaceOnUse" gradientTransform="translate(-3.83137 12.6371) rotate(-4.3904) scale(30.4913 30.4913)">
<stop stop-color="#A44CE3"/>
<stop offset="0.5" stop-color="#A44CE3" stop-opacity="0.5"/>
<stop offset="1" stop-color="#A44CE3" stop-opacity="0"/>
</radialGradient>
<clipPath id="clip0_3633_2518">
<rect width="72" height="72" fill="white"/>
</clipPath>
</defs>
</svg>
