<svg width="72" height="72" viewBox="0 0 72 72" fill="none" xmlns="http://www.w3.org/2000/svg">
<g clip-path="url(#clip0_3633_2638)">
<mask id="mask0_3633_2638" style="mask-type:luminance" maskUnits="userSpaceOnUse" x="0" y="0" width="72" height="72">
<path d="M72 0H0V72H72V0Z" fill="white"/>
</mask>
<g mask="url(#mask0_3633_2638)">
<mask id="mask1_3633_2638" style="mask-type:luminance" maskUnits="userSpaceOnUse" x="-1" y="-1" width="74" height="74">
<path d="M-0.25 -0.25H72.25V72.25H-0.25V-0.25Z" fill="white"/>
</mask>
<g mask="url(#mask1_3633_2638)">
<path d="M39.2368 25.6979L13.185 26.4098C12.338 26.4328 11.6176 26.9379 11.279 27.6552L11.0869 28.3288C11.0751 28.4307 11.0704 28.5346 11.0733 28.6401L11.785 54.692C11.8068 55.4879 12.2542 56.1721 12.9033 56.5326L13.8468 56.8018C13.9025 56.8046 13.9587 56.8052 14.0154 56.8036L40.0673 56.0918C41.2664 56.0591 42.2117 55.0605 42.179 53.8614L41.4672 27.8096C41.4406 26.8382 40.7802 26.0332 39.8928 25.7801C39.6849 25.7208 39.4643 25.6917 39.2368 25.6979Z" fill="url(#paint0_linear_3633_2638)"/>
<path d="M17.8999 26.2809L13.1849 26.4097C12.9215 26.4168 12.6703 26.4707 12.4391 26.563C11.8561 27.0133 11.3831 27.6149 11.0866 28.3303C11.075 28.4315 11.0704 28.535 11.0732 28.64L11.785 54.6919C11.8047 55.4137 12.1745 56.0437 12.7273 56.4236L14.0553 56.8025L40.0673 56.0918C41.2664 56.059 42.2118 55.0605 42.179 53.8614L41.6104 33.0455L17.8999 26.2809Z" fill="url(#paint1_linear_3633_2638)"/>
<path d="M17.9 26.2809L13.1849 26.4097C12.9215 26.4168 12.6703 26.4707 12.4391 26.563C11.8561 27.0133 11.3831 27.6149 11.0866 28.3303C11.075 28.4315 11.0704 28.535 11.0732 28.64L11.5159 44.4418L41.3858 49.514L41.6104 33.0455L17.9 26.2809Z" fill="url(#paint2_linear_3633_2638)"/>
<path d="M28.2567 18.3981L27.7703 47.696C27.748 49.0444 28.823 50.1556 30.1714 50.1781L59.469 50.6644C60.8174 50.6868 61.9286 49.6118 61.951 48.2633L62.4375 18.9657C62.4599 17.6172 61.3848 16.506 60.0364 16.4836L30.7388 15.9972C30.5196 15.9936 30.3069 16.0189 30.104 16.0697C29.0581 16.3315 28.2755 17.269 28.2567 18.3981Z" fill="url(#paint3_linear_3633_2638)"/>
<path d="M7.72144 15.0563C4.08447 15.3543 1.37753 18.5443 1.67547 22.1813L4.37293 55.1092C4.67088 58.7463 7.8609 61.4531 11.4979 61.1552L64.1825 56.8392C67.8194 56.5413 70.5264 53.3514 70.2284 49.7143L67.531 16.7864C67.233 13.1494 64.043 10.4425 60.406 10.7404L7.72144 15.0563Z" fill="url(#paint4_linear_3633_2638)"/>
<path d="M7.72144 15.0563C4.08447 15.3543 1.37753 18.5443 1.67547 22.1813L4.37293 55.1092C4.67088 58.7463 7.8609 61.4531 11.4979 61.1552L64.1825 56.8392C67.8194 56.5413 70.5264 53.3514 70.2284 49.7143L67.531 16.7864C67.233 13.1494 64.043 10.4425 60.406 10.7404L7.72144 15.0563Z" fill="url(#paint5_linear_3633_2638)"/>
<path d="M7.72144 15.0563C4.08447 15.3543 1.37753 18.5443 1.67547 22.1813L4.37293 55.1092C4.67088 58.7463 7.8609 61.4531 11.4979 61.1552L64.1825 56.8392C67.8194 56.5413 70.5264 53.3514 70.2284 49.7143L67.531 16.7864C67.233 13.1494 64.043 10.4425 60.406 10.7404L7.72144 15.0563Z" fill="url(#paint6_radial_3633_2638)"/>
<path d="M30.6533 36.1648C29.4663 38.7701 22.0767 37.7245 14.1483 33.8293C6.21997 29.9341 0.755014 24.6644 1.94211 22.0589C3.1292 19.4533 10.5187 20.4988 18.4471 24.3943C26.3753 28.2894 31.8404 33.5592 30.6533 36.1648Z" fill="#FFA0BA"/>
<path d="M1.78963 23.0544L2.24946 50.4137C2.3288 54.0124 6.61897 56.1203 9.34866 53.9015L9.76641 53.562C13.1642 50.8004 17.7801 49.9053 22.0351 51.1833C22.9373 51.3713 23.7805 50.8068 23.9187 49.9222C24.0569 49.0379 23.4377 48.1689 22.5357 47.9808C20.684 47.3823 20.205 45.0499 21.6824 43.8273L30.1926 36.7859L30.1839 36.7817C28.1271 38.5582 21.3606 37.373 14.148 33.8294C7.12916 30.3811 2.04089 25.8551 1.78963 23.0544Z" fill="white"/>
<path d="M52.6545 46.21C52.6545 45.2568 53.4272 44.4839 54.3805 44.4838L55.3252 44.472C56.2786 44.4719 57.0516 45.2446 57.0516 46.198C57.0516 47.1514 56.2787 47.9242 55.3253 47.9242L54.3809 47.9362C53.4275 47.9362 52.6545 47.1634 52.6545 46.21Z" fill="white"/>
<path d="M56.5925 35.9782C56.5925 35.0249 57.3654 34.252 58.3188 34.252L58.3463 34.2593C59.2997 34.2593 60.0725 35.0321 60.0725 35.9855C60.0725 36.9389 59.2997 37.7117 58.3463 37.7117L58.3188 37.7045C57.3654 37.7045 56.5925 36.9316 56.5925 35.9782Z" fill="white"/>
</g>
</g>
</g>
<defs>
<linearGradient id="paint0_linear_3633_2638" x1="25.2196" y1="58.0296" x2="28.3216" y2="21.9727" gradientUnits="userSpaceOnUse">
<stop stop-color="#8C48FF"/>
<stop offset="0.5" stop-color="#4E6FEE"/>
<stop offset="1" stop-color="#1097DD"/>
</linearGradient>
<linearGradient id="paint1_linear_3633_2638" x1="24.1202" y1="42.1396" x2="20.037" y2="60.4919" gradientUnits="userSpaceOnUse">
<stop stop-color="#47229F" stop-opacity="0"/>
<stop offset="0.25" stop-color="#28125D" stop-opacity="0.4"/>
<stop offset="0.5" stop-color="#09011B" stop-opacity="0.8"/>
<stop offset="0.75" stop-color="#28125D" stop-opacity="0.4"/>
<stop offset="1" stop-color="#47229F" stop-opacity="0"/>
</linearGradient>
<linearGradient id="paint2_linear_3633_2638" x1="12.0214" y1="29.6939" x2="19.8986" y2="31.5792" gradientUnits="userSpaceOnUse">
<stop stop-color="#47229F" stop-opacity="0"/>
<stop offset="0.25" stop-color="#28125D" stop-opacity="0.405"/>
<stop offset="0.5" stop-color="#09011B" stop-opacity="0.81"/>
<stop offset="0.75" stop-color="#28125D" stop-opacity="0.405"/>
<stop offset="1" stop-color="#47229F" stop-opacity="0"/>
</linearGradient>
<linearGradient id="paint3_linear_3633_2638" x1="48.3803" y1="40.2988" x2="33.602" y2="8.73998" gradientUnits="userSpaceOnUse">
<stop stop-color="#00AEFF"/>
<stop offset="0.5" stop-color="#1181E7"/>
<stop offset="1" stop-color="#2253CE"/>
</linearGradient>
<linearGradient id="paint4_linear_3633_2638" x1="41.7558" y1="39.3601" x2="69.3671" y2="56.8949" gradientUnits="userSpaceOnUse">
<stop stop-color="#F2598A"/>
<stop offset="0.5" stop-color="#F95C63"/>
<stop offset="1" stop-color="#FF5F3D"/>
</linearGradient>
<linearGradient id="paint5_linear_3633_2638" x1="77.5543" y1="64.4639" x2="47.7057" y2="43.8145" gradientUnits="userSpaceOnUse">
<stop stop-color="#FFB152"/>
<stop offset="0.5" stop-color="#FFB152" stop-opacity="0.5"/>
<stop offset="1" stop-color="#FFB152" stop-opacity="0"/>
</linearGradient>
<radialGradient id="paint6_radial_3633_2638" cx="0" cy="0" r="1" gradientUnits="userSpaceOnUse" gradientTransform="translate(-4.16463 12.7168) rotate(-4.68322) scale(30.6548 30.6548)">
<stop stop-color="#A44CE3"/>
<stop offset="0.5" stop-color="#A44CE3" stop-opacity="0.5"/>
<stop offset="1" stop-color="#A44CE3" stop-opacity="0"/>
</radialGradient>
<clipPath id="clip0_3633_2638">
<rect width="72" height="72" fill="white"/>
</clipPath>
</defs>
</svg>
