<svg width="72" height="72" viewBox="0 0 72 72" fill="none" xmlns="http://www.w3.org/2000/svg">
<g clip-path="url(#clip0_3633_2038)">
<mask id="mask0_3633_2038" style="mask-type:luminance" maskUnits="userSpaceOnUse" x="0" y="0" width="72" height="72">
<path d="M72 0H0V72H72V0Z" fill="white"/>
</mask>
<g mask="url(#mask0_3633_2038)">
<mask id="mask1_3633_2038" style="mask-type:luminance" maskUnits="userSpaceOnUse" x="-1" y="-1" width="74" height="74">
<path d="M-0.25 -0.25H72.25V72.25H-0.25V-0.25Z" fill="white"/>
</mask>
<g mask="url(#mask1_3633_2038)">
<path d="M36.5279 21.1298L2.18204 31.6136C1.06527 31.9544 0.293248 32.8891 0.106176 33.9659L0.0975113 34.931C0.119239 35.0707 0.151025 35.2105 0.193447 35.3495L10.677 69.6956C10.9974 70.745 11.8422 71.4901 12.8364 71.7313L14.1883 71.7434C14.2633 71.7267 14.3382 71.707 14.4129 71.6841L48.7591 61.2004C50.34 60.7179 51.2301 59.0453 50.7476 57.4645L40.2639 23.1184C39.8729 21.8377 38.701 21.0103 37.4295 20.9989C37.1316 20.9962 36.828 21.0383 36.5279 21.1298Z" fill="url(#paint0_linear_3633_2038)"/>
<path d="M8.39781 29.7162L2.18163 31.6136C1.83435 31.7195 1.52044 31.8831 1.24709 32.0903C0.637484 32.9019 0.229413 33.8742 0.0975195 34.9331C0.119114 35.0718 0.150903 35.211 0.193042 35.3494L10.6768 69.6956C10.9672 70.6472 11.6891 71.3486 12.5625 71.6509L14.4654 71.668L48.7588 61.2004C50.3397 60.7179 51.23 59.0453 50.7474 57.4644L42.3709 30.0212L8.39781 29.7162Z" fill="url(#paint1_linear_3633_2038)"/>
<path d="M8.39795 29.7162L2.18163 31.6136C1.83435 31.7195 1.52044 31.8831 1.24709 32.0903C0.637484 32.9019 0.229413 33.8742 0.0975195 34.9331C0.119114 35.0718 0.150903 35.211 0.193042 35.3494L6.56647 56.178L48.1021 51.9799L42.3709 30.0212L8.39795 29.7162Z" fill="url(#paint2_linear_3633_2038)"/>
<path d="M30.3463 2.51894L21.1345 38.0052C20.7106 39.6385 21.6911 41.3061 23.3242 41.7302L58.8102 50.9418C60.4434 51.3657 62.1111 50.3854 62.535 48.7521L71.7469 13.2662C72.1709 11.6329 71.1904 9.96515 69.5571 9.54118L34.0712 0.329459C33.8057 0.260519 33.5396 0.228752 33.2779 0.230798C31.929 0.241486 30.7014 1.15136 30.3463 2.51894Z" fill="url(#paint3_linear_3633_2038)"/>
<path d="M11.6636 14.802C8.31677 14.8108 5.61065 17.5312 5.61945 20.878L5.6991 51.1789C5.7079 54.5259 8.42829 57.2318 11.7751 57.223L60.2565 57.0956C63.6034 57.0868 66.3095 54.3666 66.3007 51.0196L66.221 20.7187C66.2122 17.3718 63.4918 14.6657 60.145 14.6745L11.6636 14.802Z" fill="url(#paint4_linear_3633_2038)"/>
<path d="M11.6636 14.802C8.31677 14.8108 5.61065 17.5312 5.61945 20.878L5.6991 51.1789C5.7079 54.5259 8.42829 57.2318 11.7751 57.223L60.2565 57.0956C63.6034 57.0868 66.3095 54.3666 66.3007 51.0196L66.221 20.7187C66.2122 17.3718 63.4918 14.6657 60.145 14.6745L11.6636 14.802Z" fill="url(#paint5_linear_3633_2038)"/>
<path d="M11.6636 14.802C8.31677 14.8108 5.61065 17.5312 5.61945 20.878L5.6991 51.1789C5.7079 54.5259 8.42829 57.2318 11.7751 57.223L60.2565 57.0956C63.6034 57.0868 66.3095 54.3666 66.3007 51.0196L66.221 20.7187C66.2122 17.3718 63.4918 14.6657 60.145 14.6745L11.6636 14.802Z" fill="url(#paint6_radial_3633_2038)"/>
<path d="M34.2445 47.5844C32.1081 48.2576 28.8489 43.4127 26.965 36.7632C25.0811 30.1138 25.2859 24.1776 27.4224 23.5044C29.559 22.8312 32.8182 27.6759 34.7019 34.3255C36.5858 40.9749 36.3811 46.9112 34.2445 47.5844Z" fill="#FFA0BA"/>
<path d="M26.7636 23.9366L11.0927 38.5223C9.0413 40.4518 10.0606 44.05 12.7796 44.4763L13.1956 44.5416C16.5799 45.0724 19.5161 47.2885 20.9998 50.4319C21.3626 51.055 22.1321 51.25 22.7189 50.8674C23.3055 50.485 23.4869 49.6701 23.1242 49.0471C22.5032 47.6569 23.609 46.1577 25.0932 46.3771L33.6421 47.6414L33.6399 47.6341C31.5304 47.3676 28.6785 42.8122 26.9647 36.763C25.2969 30.8763 25.2662 25.5485 26.7636 23.9366Z" fill="white"/>
<path d="M41.9475 46.1989C41.9475 45.2457 42.7202 44.4728 43.6734 44.4727L55.3252 44.4721C56.2786 44.4719 57.0516 45.2446 57.0516 46.198C57.0516 47.1514 56.2787 47.9242 55.3254 47.9242L43.6739 47.9251C42.7205 47.9251 41.9475 47.1523 41.9475 46.1989Z" fill="white"/>
<path d="M41.9475 35.9855C41.9475 35.0321 42.7204 34.2593 43.6737 34.2593H58.3463C59.2997 34.2593 60.0725 35.0321 60.0725 35.9855C60.0725 36.9389 59.2997 37.7117 58.3463 37.7117H43.6737C42.7204 37.7117 41.9475 36.9389 41.9475 35.9855Z" fill="white"/>
<path d="M52.9958 25.4796C52.9958 24.5262 53.7687 23.7534 54.7221 23.7534L58.3464 23.7568C59.2997 23.7568 60.0726 24.5296 60.0726 25.483C60.0726 26.4364 59.2997 27.2092 58.3464 27.2092L54.7221 27.2058C53.7687 27.2058 52.9958 26.433 52.9958 25.4796Z" fill="white"/>
</g>
</g>
</g>
<defs>
<linearGradient id="paint0_linear_3633_2038" x1="29.7452" y1="69.2106" x2="20.6646" y2="20.1777" gradientUnits="userSpaceOnUse">
<stop stop-color="#8C48FF"/>
<stop offset="0.5" stop-color="#4E6FEE"/>
<stop offset="1" stop-color="#1097DD"/>
</linearGradient>
<linearGradient id="paint1_linear_3633_2038" x1="22.467" y1="48.5052" x2="22.8532" y2="63.7629" gradientUnits="userSpaceOnUse">
<stop stop-color="#47229F" stop-opacity="0"/>
<stop offset="0.25" stop-color="#28125D" stop-opacity="0.4"/>
<stop offset="0.5" stop-color="#09011B" stop-opacity="0.8"/>
<stop offset="0.75" stop-color="#28125D" stop-opacity="0.4"/>
<stop offset="1" stop-color="#47229F" stop-opacity="0"/>
</linearGradient>
<linearGradient id="paint2_linear_3633_2038" x1="1.83856" y1="36.4022" x2="12.9927" y2="36.0226" gradientUnits="userSpaceOnUse">
<stop stop-color="#47229F" stop-opacity="0"/>
<stop offset="0.25" stop-color="#28125D" stop-opacity="0.405"/>
<stop offset="0.5" stop-color="#09011B" stop-opacity="0.81"/>
<stop offset="0.75" stop-color="#28125D" stop-opacity="0.405"/>
<stop offset="1" stop-color="#47229F" stop-opacity="0"/>
</linearGradient>
<linearGradient id="paint3_linear_3633_2038" x1="48.3749" y1="35.0734" x2="39.6885" y2="-7.6537" gradientUnits="userSpaceOnUse">
<stop stop-color="#00AEFF"/>
<stop offset="0.5" stop-color="#1181E7"/>
<stop offset="1" stop-color="#2253CE"/>
</linearGradient>
<linearGradient id="paint4_linear_3633_2038" x1="41.0191" y1="39.4893" x2="64.9928" y2="57.5223" gradientUnits="userSpaceOnUse">
<stop stop-color="#F2598A"/>
<stop offset="0.5" stop-color="#F95C63"/>
<stop offset="1" stop-color="#FF5F3D"/>
</linearGradient>
<linearGradient id="paint5_linear_3633_2038" x1="71.9296" y1="65.0359" x2="46.1362" y2="43.9931" gradientUnits="userSpaceOnUse">
<stop stop-color="#FFB152"/>
<stop offset="0.5" stop-color="#FFB152" stop-opacity="0.5"/>
<stop offset="1" stop-color="#FFB152" stop-opacity="0"/>
</linearGradient>
<radialGradient id="paint6_radial_3633_2038" cx="0" cy="0" r="1" gradientUnits="userSpaceOnUse" gradientTransform="translate(0.965924 11.8015) rotate(-0.150621) scale(28.1151 28.1151)">
<stop stop-color="#A44CE3"/>
<stop offset="0.5" stop-color="#A44CE3" stop-opacity="0.5"/>
<stop offset="1" stop-color="#A44CE3" stop-opacity="0"/>
</radialGradient>
<clipPath id="clip0_3633_2038">
<rect width="72" height="72" fill="white"/>
</clipPath>
</defs>
</svg>
