<svg width="72" height="72" viewBox="0 0 72 72" fill="none" xmlns="http://www.w3.org/2000/svg">
<g clip-path="url(#clip0_3633_4201)">
<mask id="mask0_3633_4201" style="mask-type:luminance" maskUnits="userSpaceOnUse" x="0" y="0" width="72" height="72">
<path d="M72 0H0V72H72V0Z" fill="white"/>
</mask>
<g mask="url(#mask0_3633_4201)">
<mask id="mask1_3633_4201" style="mask-type:luminance" maskUnits="userSpaceOnUse" x="-1" y="-1" width="74" height="74">
<path d="M-0.25 -0.25H72.25V72.25H-0.25V-0.25Z" fill="white"/>
</mask>
<g mask="url(#mask1_3633_4201)">
<path d="M36.4687 21.0598L2.00997 31.7344C0.889533 32.0814 0.117882 33.0235 -0.0655605 34.106L-0.0702466 35.0756C-0.047838 35.2158 -0.0153254 35.3561 0.0278678 35.4955L10.7021 69.9546C11.0284 71.0074 11.8802 71.7523 12.8799 71.9905L14.238 71.997C14.3133 71.98 14.3884 71.9598 14.4634 71.9365L48.9224 61.2621C50.5085 60.7708 51.3957 59.0869 50.9044 57.5008L40.23 23.042C39.8319 21.7571 38.6512 20.9307 37.3738 20.9245C37.0746 20.9231 36.7697 20.9666 36.4687 21.0598Z" fill="url(#paint0_linear_3633_4201)"/>
<path d="M8.24578 29.8025L2.00918 31.7344C1.66075 31.8423 1.3461 32.0078 1.07236 32.2172C0.463356 33.035 0.0574736 34.0134 -0.0706126 35.0778C-0.0483423 35.217 -0.0158291 35.3567 0.0270785 35.4955L10.7016 69.9546C10.9973 70.9093 11.7254 71.6109 12.604 71.911L14.5156 71.9202L48.9218 61.2621C50.5079 60.7708 51.3952 59.0869 50.9039 57.5009L42.3749 29.9675L8.24578 29.8025Z" fill="url(#paint1_linear_3633_4201)"/>
<path d="M8.24592 29.8025L2.00918 31.7344C1.66075 31.8423 1.3461 32.0078 1.07236 32.2172C0.463356 33.035 0.0574736 34.0134 -0.0706126 35.0778C-0.0483423 35.217 -0.0158291 35.3567 0.0270785 35.4955L6.51625 56.3925L48.2237 52.0024L42.3749 29.9675L8.24592 29.8025Z" fill="url(#paint2_linear_3633_4201)"/>
<path d="M30.421 2.27086L21.0537 37.8332C20.6227 39.47 21.6002 41.1462 23.2369 41.5775L58.7989 50.9445C60.4356 51.3756 62.112 50.3983 62.5431 48.7615L71.9104 13.1994C72.3415 11.5626 71.364 9.88624 69.7272 9.45512L34.1651 0.0879811C33.8991 0.0178786 33.6323 -0.0149396 33.3698 -0.0138247C32.0167 -0.00793466 30.782 0.900334 30.421 2.27086Z" fill="url(#paint3_linear_3633_4201)"/>
<path d="M11.7246 14.803C8.38267 14.8077 5.67715 17.5209 5.68185 20.8628L5.72441 51.1199C5.72911 54.462 8.44226 57.1674 11.7842 57.1627L60.1955 57.0946C63.5375 57.0899 66.243 54.3769 66.2383 51.0348L66.1957 20.7777C66.191 17.4357 63.4779 14.7302 60.1359 14.7349L11.7246 14.803Z" fill="url(#paint4_linear_3633_4201)"/>
<path d="M11.7246 14.803C8.38267 14.8077 5.67715 17.5209 5.68185 20.8628L5.72441 51.1199C5.72911 54.462 8.44226 57.1674 11.7842 57.1627L60.1955 57.0946C63.5375 57.0899 66.243 54.3769 66.2383 51.0348L66.1957 20.7777C66.191 17.4357 63.4779 14.7302 60.1359 14.7349L11.7246 14.803Z" fill="url(#paint5_linear_3633_4201)"/>
<path d="M11.7246 14.803C8.38267 14.8077 5.67715 17.5209 5.68185 20.8628L5.72441 51.1199C5.72911 54.462 8.44226 57.1674 11.7842 57.1627L60.1955 57.0946C63.5375 57.0899 66.243 54.3769 66.2383 51.0348L66.1957 20.7777C66.191 17.4357 63.4779 14.7302 60.1359 14.7349L11.7246 14.803Z" fill="url(#paint6_radial_3633_4201)"/>
<path d="M34.2128 47.7593C32.0772 48.4006 28.8986 43.5342 27.1132 36.8901C25.3278 30.2461 25.6117 24.3402 27.7474 23.699C29.8831 23.0578 33.0618 27.924 34.8471 34.5682C36.6325 41.2121 36.3486 47.1181 34.2128 47.7593Z" fill="#FFA0BA"/>
<path d="M27.0858 24.1203L11.2907 38.4268C9.22279 40.3196 10.1888 43.9149 12.8894 44.376L13.3026 44.4466C16.6641 45.0206 19.5568 47.266 20.9911 50.4149C21.3438 51.04 22.1072 51.2444 22.6964 50.8716C23.2854 50.4989 23.477 49.6902 23.1244 49.0651C22.525 47.6731 23.6459 46.1957 25.1203 46.4342L33.6124 47.8079L33.6104 47.8007C31.5142 47.507 28.737 42.9341 27.1129 36.8898C25.5323 31.008 25.5736 25.7045 27.0858 24.1203Z" fill="white"/>
<path d="M34.8526 43.1401C34.9407 42.4128 35.6017 41.8946 36.329 41.9826L44.8494 43.015C45.5768 43.103 46.0951 43.764 46.007 44.4914C45.9189 45.2188 45.2577 45.737 44.5304 45.6488L36.0102 44.6167C35.2828 44.5286 34.7645 43.8675 34.8526 43.1401Z" fill="white"/>
<path d="M34.8105 35.9889C34.8105 35.2561 35.4045 34.6622 36.1372 34.6622L46.9456 34.6633C47.6783 34.6633 48.2722 35.2573 48.2722 35.99C48.2722 36.7227 47.6783 37.3167 46.9456 37.3167L36.1372 37.3155C35.4045 37.3155 34.8105 36.7216 34.8105 35.9889Z" fill="white"/>
<path d="M34.8613 28.755C34.7731 28.0276 35.2913 27.3665 36.0187 27.2784L46.751 25.979C47.4784 25.8908 48.1395 26.409 48.2276 27.1364C48.3158 27.8638 47.7976 28.5249 47.0702 28.613L36.3379 29.9125C35.6105 30.0006 34.9494 29.4824 34.8613 28.755Z" fill="white"/>
</g>
</g>
</g>
<defs>
<linearGradient id="paint0_linear_3633_4201" x1="29.8552" y1="69.388" x2="20.5292" y2="20.1694" gradientUnits="userSpaceOnUse">
<stop stop-color="#8C48FF"/>
<stop offset="0.5" stop-color="#4E6FEE"/>
<stop offset="1" stop-color="#1097DD"/>
</linearGradient>
<linearGradient id="paint1_linear_3633_4201" x1="22.4573" y1="48.6185" x2="22.8659" y2="63.4662" gradientUnits="userSpaceOnUse">
<stop stop-color="#47229F" stop-opacity="0"/>
<stop offset="0.25" stop-color="#28125D" stop-opacity="0.4"/>
<stop offset="0.5" stop-color="#09011B" stop-opacity="0.8"/>
<stop offset="0.75" stop-color="#28125D" stop-opacity="0.4"/>
<stop offset="1" stop-color="#47229F" stop-opacity="0"/>
</linearGradient>
<linearGradient id="paint2_linear_3633_4201" x1="1.68448" y1="36.5463" x2="12.8878" y2="36.1185" gradientUnits="userSpaceOnUse">
<stop stop-color="#47229F" stop-opacity="0"/>
<stop offset="0.25" stop-color="#28125D" stop-opacity="0.405"/>
<stop offset="0.5" stop-color="#09011B" stop-opacity="0.81"/>
<stop offset="0.75" stop-color="#28125D" stop-opacity="0.405"/>
<stop offset="1" stop-color="#47229F" stop-opacity="0"/>
</linearGradient>
<linearGradient id="paint3_linear_3633_4201" x1="48.3884" y1="34.99" x2="39.8284" y2="-7.8996" gradientUnits="userSpaceOnUse">
<stop stop-color="#00AEFF"/>
<stop offset="0.5" stop-color="#1181E7"/>
<stop offset="1" stop-color="#2253CE"/>
</linearGradient>
<linearGradient id="paint4_linear_3633_4201" x1="41.0074" y1="39.4903" x2="64.9243" y2="57.5264" gradientUnits="userSpaceOnUse">
<stop stop-color="#F2598A"/>
<stop offset="0.5" stop-color="#F95C63"/>
<stop offset="1" stop-color="#FF5F3D"/>
</linearGradient>
<linearGradient id="paint5_linear_3633_4201" x1="71.8419" y1="65.0376" x2="46.1116" y2="43.9938" gradientUnits="userSpaceOnUse">
<stop stop-color="#FFB152"/>
<stop offset="0.5" stop-color="#FFB152" stop-opacity="0.5"/>
<stop offset="1" stop-color="#FFB152" stop-opacity="0"/>
</linearGradient>
<radialGradient id="paint6_radial_3633_4201" cx="0" cy="0" r="1" gradientUnits="userSpaceOnUse" gradientTransform="translate(1.04616 11.7938) rotate(-0.0805945) scale(28.0744 28.0744)">
<stop stop-color="#A44CE3"/>
<stop offset="0.5" stop-color="#A44CE3" stop-opacity="0.5"/>
<stop offset="1" stop-color="#A44CE3" stop-opacity="0"/>
</radialGradient>
<clipPath id="clip0_3633_4201">
<rect width="72" height="72" fill="white"/>
</clipPath>
</defs>
</svg>
