<svg width="72" height="72" viewBox="0 0 72 72" fill="none" xmlns="http://www.w3.org/2000/svg">
<g clip-path="url(#clip0_3633_2458)">
<mask id="mask0_3633_2458" style="mask-type:luminance" maskUnits="userSpaceOnUse" x="0" y="0" width="72" height="72">
<path d="M72 0H0V72H72V0Z" fill="white"/>
</mask>
<g mask="url(#mask0_3633_2458)">
<mask id="mask1_3633_2458" style="mask-type:luminance" maskUnits="userSpaceOnUse" x="-1" y="-1" width="74" height="74">
<path d="M-0.25 -0.25H72.25V72.25H-0.25V-0.25Z" fill="white"/>
</mask>
<g mask="url(#mask1_3633_2458)">
<path d="M39.0654 25.2142L12.0446 26.6972C11.166 26.7453 10.4327 27.2901 10.1018 28.0444L9.92155 28.749C9.91229 28.8551 9.91036 28.9631 9.91636 29.0725L11.3991 56.0935C11.4445 56.9191 11.9284 57.6165 12.6124 57.9721L13.5995 58.2246C13.6574 58.2258 13.7157 58.2249 13.7745 58.2216L40.7956 56.7388C42.0393 56.6705 42.9919 55.6071 42.9237 54.3633L41.4408 27.3424C41.3855 26.3349 40.677 25.5182 39.7487 25.2808C39.5312 25.2252 39.3015 25.2013 39.0654 25.2142Z" fill="url(#paint0_linear_3633_2458)"/>
<path d="M16.9349 26.4287L12.0445 26.6971C11.7713 26.712 11.5121 26.7751 11.2747 26.8775C10.6824 27.3616 10.2087 27.9995 9.92135 28.7506C9.91217 28.856 9.91035 28.9635 9.91624 29.0724L11.3992 56.0935C11.4402 56.8421 11.842 57.4854 12.4267 57.864L13.816 58.2193L40.7955 56.7388C42.0393 56.6705 42.992 55.607 42.9238 54.3633L41.739 32.7731L16.9349 26.4287Z" fill="url(#paint1_linear_3633_2458)"/>
<path d="M16.935 26.4288L12.0445 26.6971C11.7713 26.712 11.5121 26.7751 11.2747 26.8775C10.6824 27.3616 10.2087 27.9995 9.92135 28.7506C9.91217 28.856 9.91035 28.9635 9.91624 29.0724L10.827 45.4617L41.9763 49.8735L41.739 32.7731L16.935 26.4288Z" fill="url(#paint2_linear_3633_2458)"/>
<path d="M28.2103 16.8354L26.9796 46.8657C26.9231 48.2479 27.9977 49.4141 29.3798 49.4709L59.4098 50.7014C60.7919 50.7581 61.9583 49.6835 62.0149 48.3014L63.2457 18.2713C63.3023 16.8891 62.2277 15.7227 60.8455 15.6661L30.8154 14.4354C30.5908 14.4262 30.372 14.4469 30.1627 14.4939C29.0837 14.7362 28.2578 15.678 28.2103 16.8354Z" fill="url(#paint3_linear_3633_2458)"/>
<path d="M8.1294 15.0068C4.52088 15.273 1.81127 18.4143 2.07747 22.0228L4.4876 54.6931C4.75382 58.3018 7.89504 61.0112 11.5036 60.745L63.776 56.8888C67.3846 56.6226 70.0942 53.4816 69.828 49.8729L67.4178 17.2025C67.1516 13.594 64.0104 10.8844 60.4019 11.1506L8.1294 15.0068Z" fill="url(#paint4_linear_3633_2458)"/>
<path d="M8.1294 15.0068C4.52088 15.273 1.81127 18.4143 2.07747 22.0228L4.4876 54.6931C4.75382 58.3018 7.89504 61.0112 11.5036 60.745L63.776 56.8888C67.3846 56.6226 70.0942 53.4816 69.828 49.8729L67.4178 17.2025C67.1516 13.594 64.0104 10.8844 60.4019 11.1506L8.1294 15.0068Z" fill="url(#paint5_linear_3633_2458)"/>
<path d="M8.1294 15.0068C4.52088 15.273 1.81127 18.4143 2.07747 22.0228L4.4876 54.6931C4.75382 58.3018 7.89504 61.0112 11.5036 60.745L63.776 56.8888C67.3846 56.6226 70.0942 53.4816 69.828 49.8729L67.4178 17.2025C67.1516 13.594 64.0104 10.8844 60.4019 11.1506L8.1294 15.0068Z" fill="url(#paint6_radial_3633_2458)"/>
<path d="M31.5398 37.234C30.1662 39.6734 23.0537 38.0386 15.6538 33.5826C8.25393 29.1265 3.36878 23.5366 4.74258 21.097C6.11638 18.6575 13.2288 20.2921 20.6286 24.7484C28.0284 29.2043 32.9136 34.7944 31.5398 37.234Z" fill="#FFA0BA"/>
<path d="M4.51085 22.0542L2.67796 48.7486C2.45523 52.2615 6.4594 54.6729 9.3039 52.7386L9.73921 52.4428C13.28 50.0354 17.8518 49.5481 21.8909 51.148C22.7542 51.4064 23.6228 50.9267 23.8312 50.0764C24.0396 49.2263 23.5088 48.328 22.6456 48.0695C20.8914 47.332 20.6191 45.0197 22.1605 43.9517L31.039 37.8007L31.0308 37.7959C28.8788 39.3553 22.3851 37.6364 15.6533 33.5826C9.10232 29.6378 4.52216 24.8039 4.51085 22.0542Z" fill="white"/>
<path d="M49.3313 46.2065C49.3313 45.2533 50.104 44.4805 51.0572 44.4803L55.3251 44.472C56.2784 44.4719 57.0514 45.2446 57.0514 46.198C57.0514 47.1514 56.2786 47.9242 55.3252 47.9242L51.0577 47.9328C50.1043 47.9328 49.3313 47.1599 49.3313 46.2065Z" fill="white"/>
<path d="M56.3608 35.9784C56.3608 35.025 57.1337 34.2521 58.0871 34.2521L58.3462 34.2593C59.2996 34.2593 60.0724 35.0321 60.0724 35.9855C60.0724 36.9389 59.2996 37.7117 58.3462 37.7117L58.0871 37.7046C57.1337 37.7046 56.3608 36.9317 56.3608 35.9784Z" fill="white"/>
</g>
</g>
</g>
<defs>
<linearGradient id="paint0_linear_3633_2458" x1="25.4392" y1="59.1742" x2="27.6293" y2="21.6593" gradientUnits="userSpaceOnUse">
<stop stop-color="#8C48FF"/>
<stop offset="0.5" stop-color="#4E6FEE"/>
<stop offset="1" stop-color="#1097DD"/>
</linearGradient>
<linearGradient id="paint1_linear_3633_2458" x1="23.8444" y1="42.7121" x2="20.1302" y2="61.8781" gradientUnits="userSpaceOnUse">
<stop stop-color="#47229F" stop-opacity="0"/>
<stop offset="0.25" stop-color="#28125D" stop-opacity="0.4"/>
<stop offset="0.5" stop-color="#09011B" stop-opacity="0.8"/>
<stop offset="0.75" stop-color="#28125D" stop-opacity="0.4"/>
<stop offset="1" stop-color="#47229F" stop-opacity="0"/>
</linearGradient>
<linearGradient id="paint2_linear_3633_2458" x1="10.9306" y1="30.1392" x2="19.1608" y2="31.8712" gradientUnits="userSpaceOnUse">
<stop stop-color="#47229F" stop-opacity="0"/>
<stop offset="0.25" stop-color="#28125D" stop-opacity="0.405"/>
<stop offset="0.5" stop-color="#09011B" stop-opacity="0.81"/>
<stop offset="0.75" stop-color="#28125D" stop-opacity="0.405"/>
<stop offset="1" stop-color="#47229F" stop-opacity="0"/>
</linearGradient>
<linearGradient id="paint3_linear_3633_2458" x1="48.2982" y1="39.7953" x2="33.9328" y2="7.06527" gradientUnits="userSpaceOnUse">
<stop stop-color="#00AEFF"/>
<stop offset="0.5" stop-color="#1181E7"/>
<stop offset="1" stop-color="#2253CE"/>
</linearGradient>
<linearGradient id="paint4_linear_3633_2458" x1="41.6799" y1="39.3779" x2="68.9163" y2="56.9857" gradientUnits="userSpaceOnUse">
<stop stop-color="#F2598A"/>
<stop offset="0.5" stop-color="#F95C63"/>
<stop offset="1" stop-color="#FF5F3D"/>
</linearGradient>
<linearGradient id="paint5_linear_3633_2458" x1="76.9733" y1="64.5562" x2="47.5437" y2="43.8422" gradientUnits="userSpaceOnUse">
<stop stop-color="#FFB152"/>
<stop offset="0.5" stop-color="#FFB152" stop-opacity="0.5"/>
<stop offset="1" stop-color="#FFB152" stop-opacity="0"/>
</linearGradient>
<radialGradient id="paint6_radial_3633_2458" cx="0" cy="0" r="1" gradientUnits="userSpaceOnUse" gradientTransform="translate(-3.63708 12.5917) rotate(-4.21913) scale(30.3959)">
<stop stop-color="#A44CE3"/>
<stop offset="0.5" stop-color="#A44CE3" stop-opacity="0.5"/>
<stop offset="1" stop-color="#A44CE3" stop-opacity="0"/>
</radialGradient>
<clipPath id="clip0_3633_2458">
<rect width="72" height="72" fill="white"/>
</clipPath>
</defs>
</svg>
